{"title":"Tungstênio (2018) [1080p]","magnet":"magnet:?xt=urn:btih:4a519a233db3e10fc6b60d1a1301e798563c6541&dn=Tungst%26ecirc%3Bnio+%282018%29+%5B1080p%5D&tr=udp%3A%2F%2Ftracker.leechers-paradise.org%3A6969&tr=udp%3A%2F%2Fzer0day.ch%3A1337&tr=udp%3A%2F%2Fopen.demonii.com%3A1337&tr=udp%3A%2F%2Ftracker.coppersurfer.tk%3A6969&tr=udp%3A%2F%2Fexodus.desync.com%3A6969","uploader":"luizoti","categoryP":"video","categoryS":"hd___movies","size":"4561123071","seeders":"0","leechers":"0","description":"General\r\nUnique ID                   : 184945672943780380571803398816030012711 (0x8B233DAF9A2C2C1A94E8621767FC3527)\r\nFormat                      : Matroska\r\nFormat version              : Version 2\r\nFile size                   : 4.25 GiB\r\nDuration                    : 1 h 19 min\r\nOverall bit rate mode       : Variable\r\nOverall bit rate            : 7 640 kb/s\r\nEncoded date                : UTC 2018-08-29 00:28:53\r\nWriting application         : DVDFab 10.2.0.4\r\nWriting library             : libebml v1.3.4 + libmatroska v1.4.5\r\n\r\nVideo\r\nID                          : 1\r\nFormat                      : AVC\r\nFormat/Info                 : Advanced Video Codec\r\nFormat profile              : High@L4\r\nFormat settings             : CABAC / 1 Ref Frames\r\nFormat settings, CABAC      : Yes\r\nFormat settings, ReFrames   : 1 frame\r\nFormat settings, GOP        : M=1, N=24\r\nCodec ID                    : V_MPEG4/ISO/AVC\r\nDuration                    : 1 h 19 min\r\nBit rate mode               : Variable\r\nBit rate                    : 7 191 kb/s\r\nMaximum bit rate            : 8 965 kb/s\r\nWidth                       : 1 920 pixels\r\nHeight                      : 856 pixels\r\nDisplay aspect ratio        : 2.25:1\r\nFrame rate mode             : Constant\r\nFrame rate                  : 23.976 (24000/1001) FPS\r\nColor space                 : YUV\r\nChroma subsampling          : 4:2:0\r\nBit depth                   : 8 bits\r\nScan type                   : Progressive\r\nBits/(Pixel*Frame)          : 0.182\r\nStream size                 : 4.00 GiB (94%)\r\nDefault                     : Yes\r\nForced                      : No\r\nColor range                 : Limited\r\nColor primaries             : BT.709\r\nTransfer characteristics    : BT.709\r\nMatrix coefficients         : BT.709\r\n\r\nAudio\r\nID                          : 2\r\nFormat                      : AC-3\r\nFormat/Info                 : Audio Coding 3\r\nCodec ID                    : A_AC3\r\nDuration                    : 1 h 19 min\r\nBit rate mode               : Constant\r\nBit rate                    : 448 kb/s\r\nChannel(s)                  : 6 channels\r\nChannel positions           : Front: L C R, Side: L R, LFE\r\nSampling rate               : 48.0 kHz\r\nFrame rate                  : 31.250 FPS (1536 SPF)\r\nBit depth                   : 16 bits\r\nCompression mode            : Lossy\r\nStream size                 : 255 MiB (6%)\r\nLanguage                    : Portuguese\r\nService kind                : Complete Main\r\nDefault                     : Yes\r\nForced                      : No\r\n\r\nMenu\r\n00:00:00.000                : en:Chapter 1\r\n00:10:36.802                : en:Chapter 2\r\n00:19:57.570                : en:Chapter 3\r\n00:30:01.840                : en:Chapter 4\r\n00:41:03.583                : en:Chapter 5\r\n00:50:09.963                : en:Chapter 6\r\n01:00:04.348                : en:Chapter 7\r\n01:11:40.126                : en:Chapter 8","last_updated":"2018-10-13T12:42:35.925Z","parsed":{"xt":"urn:btih:4a519a233db3e10fc6b60d1a1301e798563c6541","dn":"Tungst&ecirc;nio (2018) [1080p]","tr":["udp://exodus.desync.com:6969","udp://open.demonii.com:1337","udp://tracker.coppersurfer.tk:6969","udp://tracker.leechers-paradise.org:6969","udp://zer0day.ch:1337"],"infoHash":"4a519a233db3e10fc6b60d1a1301e798563c6541","infoHashBuffer":{"type":"Buffer","data":[74,81,154,35,61,179,225,15,198,182,13,26,19,1,231,152,86,60,101,65]},"name":"Tungst&ecirc;nio (2018) [1080p]","announce":["udp://exodus.desync.com:6969","udp://open.demonii.com:1337","udp://tracker.coppersurfer.tk:6969","udp://tracker.leechers-paradise.org:6969","udp://zer0day.ch:1337"],"urlList":[]}}